<?xml version='1.0' encoding='utf-8'?>
<svg xmlns="http://www.w3.org/2000/svg" width="1777" height="1498" viewBox="0 0 1777 1498" fill="none">
<path d="M1362.25 7.42822C1449.7 40.7428 1531 109.492 1592.49 178.672C1652.63 246.327 1698.99 332.345 1732.48 416.086C1757.36 478.286 1769.79 535.76 1769.79 602.796C1769.79 651.392 1767.94 702.017 1757.04 749.485C1746.61 794.857 1739.15 850.015 1712.39 889.159C1689.78 922.245 1657.52 946.228 1624.06 967.605C1588.82 990.117 1550.43 998.511 1512.45 1013.53C1460.82 1033.94 1399.51 1033 1345.03 1039.36C1196.98 1056.63 1047.85 1060.72 898.905 1060.72C843.406 1060.72 788.223 1058.24 732.763 1057.85C688.241 1057.54 642.232 1057.44 597.873 1053.55C563.962 1050.57 530.036 1053.26 496.147 1049.24C434.098 1041.89 371.215 1039.5 311.191 1020.54C273.232 1008.55 228.491 995.189 194.158 973.983C157.047 951.061 117.521 931.604 86.6922 899.841C55.7527 867.964 27.7384 828.464 15.2609 785.36C10.5272 769.007 10.4544 748.428 8.24529 731.308C5.91942 713.283 6.33288 692.121 10.637 674.546C21.7771 629.057 44.5814 579.67 80.6333 548.425C107.771 524.905 136.075 502.608 164.501 480.98C178.555 470.286 199.562 461.491 215.524 453.715C239.739 441.917 265.309 432.494 290.463 422.942C355.444 398.265 417.969 376.592 486.421 364.744C549.582 353.812 612.703 347.815 676.798 345.93C830.59 341.406 984.343 333.58 1137.43 351.829C1274.5 368.168 1415.04 393.217 1542.42 446.539C1564.2 455.656 1577.23 471.198 1594.56 485.285C1603.38 492.448 1610.87 504.597 1614.17 515.42C1618.51 529.619 1628.94 538.306 1632.19 554.005C1635.93 572.066 1648.09 591 1655.63 607.898C1664.66 628.131 1674.9 649.565 1677.95 671.676C1680.77 692.106 1689.13 711.433 1691.66 732.265C1694.1 752.325 1692.3 773.631 1692.3 793.81C1692.3 850.135 1681.91 902.5 1667.11 956.763C1658.95 986.669 1650.28 1017.13 1640.48 1046.53C1627.65 1085.02 1606.5 1118.8 1591.21 1156.07C1560.66 1230.55 1496.28 1281.05 1431.13 1323.49C1397.28 1345.54 1360.61 1363.64 1330.04 1390.45C1303.36 1413.86 1284.47 1448.96 1267.54 1479.74" stroke="black" stroke-width="13" stroke-linecap="round" />
<path d="M1253.19 1422.34C1261.92 1433.25 1255.47 1454 1259.09 1466.67C1260.11 1470.22 1261.8 1494.66 1266.9 1490.58C1273.78 1485.09 1285.55 1467.61 1294.81 1465.55C1306.05 1463.05 1312.83 1453.91 1324.94 1453.91" stroke="black" stroke-width="13" stroke-linecap="round" />
</svg>