<svg width="964" height="633" viewBox="0 0 964 633" fill="none" xmlns="http://www.w3.org/2000/svg">
<path d="M705.534 5.95294C712.027 6.54322 719.904 13.147 725.5 16.3449C737.295 23.0851 748.636 30.6536 760.358 37.5379C782.03 50.2658 802.767 67.3087 822.71 82.5425C832.998 90.4015 842.235 99.777 851.349 108.891C860.446 117.987 870.62 125.574 879.334 135.239C894.868 152.468 909.24 169.603 921.72 189.408C938.231 215.611 957.396 243.475 957.396 275.817C957.396 289.873 959.133 303.969 958.869 318.203C958.523 336.91 952.794 354.754 951.423 373.272C950.699 383.044 947.389 393.712 944.795 402.975C939.683 421.232 931.609 440.588 919.101 455.18C903.517 473.362 891.293 490.567 869.76 502.312C846.149 515.191 820.12 522.292 793.17 524.405C777.808 525.61 763.485 530.141 747.757 530.297C731.692 530.456 715.685 531.77 699.643 531.77C671.194 531.77 642.746 531.77 614.298 531.77C577.793 531.77 541.232 531.19 504.732 531.77C465.337 532.395 426.108 537.661 386.575 537.661C379.092 537.661 371.884 539.134 364.4 539.134C356.31 539.134 349.107 541.909 341.243 542.08C324.99 542.433 309.108 541.068 293.456 546.498C284.796 549.503 274.412 549.296 265.308 551.572C258.847 553.187 251.798 552.39 245.179 552.39C233.198 552.39 220.822 552.314 209.175 549.444C201.739 547.612 193.868 547.375 187 544.371C183.448 542.817 178.003 542.212 174.153 542.08C170.81 541.964 163.563 539.812 160.57 538.316C155.363 535.712 150.316 537.456 145.105 535.452C140.675 533.748 134.695 533.411 129.967 533.242C125.689 533.09 122.352 530.297 117.857 530.297C108.861 530.297 100.853 522.811 92.8998 519.332C85.1413 515.938 72.6138 510.955 67.7791 503.703C61.8123 494.753 50.1535 490.389 43.5585 481.365C33.9194 468.174 21.6416 451.309 20.6471 433.905C20.3249 428.267 16.7161 424.135 16.1466 418.44C15.4431 411.405 11.9948 404.768 11.8098 397.738C11.651 391.703 9.56857 387.14 8.94588 381.536C8.3905 376.538 9.48805 371.541 8.12762 366.644C1.91554 344.28 6.98967 319.179 8.94588 296.682C11.6695 265.361 35.0773 238.757 53.0503 214.365C69.2394 192.394 99.2675 190.633 123.667 183.516C129.636 181.775 136.441 181.472 142.568 180.08C150.902 178.186 159.5 177.708 167.853 175.988C178.302 173.837 189.043 174.927 199.356 172.388C211.689 169.352 224.291 172.399 236.505 168.624C255.131 162.867 274.095 166.446 293.129 164.696C324.694 161.794 357.848 160.102 389.521 162.405C435.115 165.721 482.287 159.742 527.316 167.642C553.163 172.176 579.147 169.724 605.051 173.533C622.007 176.027 642.59 174.036 658.73 179.752C667.384 182.817 676.28 182.283 684.996 184.826C693.853 187.409 703.705 188.59 712.899 188.59C728.205 188.59 740.867 194.15 755.612 197.427C771.068 200.861 787.213 206.063 802.089 211.419C812.901 215.311 825.788 219.739 835.229 226.23C860.841 243.838 880.275 266.002 899.954 290.054C906.837 298.467 912.432 309.609 916.237 319.757C920.02 329.845 925.116 340.685 926.547 351.424C928.068 362.829 930.433 374.126 933.094 385.3C935.82 396.75 933.83 410.667 933.83 422.449C933.83 428.205 933.83 433.96 933.83 439.715C933.83 449.241 932.038 455.296 929.411 464.345C927.367 471.388 924.078 478.29 922.211 485.292C920.893 490.235 918.511 492.139 916.483 496.421C910.518 509.013 894.667 521.62 883.098 530.297C874.267 536.92 865.285 543.231 856.586 550.099C849.458 555.726 838.974 557.62 830.729 561.227C802.309 573.661 770.254 581.521 739.82 586.921C713.317 591.623 686.831 595.103 659.875 595.103C635.853 595.103 612.874 600.995 589.177 600.995" stroke="black" stroke-width="10" stroke-linecap="round"/>
<path d="M609.797 581.847C609.261 586.673 597.577 593.335 593.596 595.431C589.116 597.788 583.781 601.128 579.685 603.859C577.856 605.078 584.16 603.937 586.231 604.677C591.21 606.455 596.458 607.755 600.96 610.568C609.282 615.77 621.545 619.604 627.472 627.507" stroke="black" stroke-width="10" stroke-linecap="round"/>
</svg>
